<svg xmlns="http://www.w3.org/2000/svg" version="1.1" xmlns:xlink="http://www.w3.org/1999/xlink" xmlns:svgjs="http://svgjs.com/svgjs" width="1440" height="560" preserveAspectRatio="none" viewBox="0 0 1440 560"><g mask="url(&quot;#SvgjsMask1015&quot;)" fill="none"><rect width="1440" height="560" x="0" y="0" fill="#0e2a47"></rect><path d="M1338.045064721499 271.27274800735944L1264.596088804739 384.13862074693236 1382.0238209571883 392.34996769010957z" fill="rgba(28, 83, 142, 0.4)" class="triangle-float3"></path><path d="M637.17 117.66 a183.3 183.3 0 1 0 366.6 0 a183.3 183.3 0 1 0 -366.6 0z" fill="rgba(28, 83, 142, 0.4)" class="triangle-float1"></path><path d="M239.898835187686 194.42614758525932L333.25796524370753 152.96654994441366 261.9429816453163 99.22685522083165z" fill="rgba(28, 83, 142, 0.4)" class="triangle-float1"></path><path d="M825.811,633.886C872.021,634.914,909.405,601.795,933.684,562.464C959.55,520.562,976.837,469.798,954.048,426.147C929.868,379.831,878.047,356.957,825.811,355.84C771.351,354.675,711.85,371.62,687.709,420.451C665.129,466.124,698.269,515.065,725.947,557.841C750.309,595.492,780.977,632.888,825.811,633.886" fill="rgba(28, 83, 142, 0.4)" class="triangle-float3"></path><path d="M1433.286,584.098C1484.246,584.26,1541.141,585.69,1570.101,543.758C1602.205,497.274,1600.518,433.397,1570.354,385.631C1541.923,340.61,1486.451,324.157,1433.286,327.105C1385.401,329.761,1345.72,358.87,1320.241,399.501C1292.699,443.422,1270.897,498.68,1297.971,542.891C1324.362,585.987,1382.751,583.937,1433.286,584.098" fill="rgba(28, 83, 142, 0.4)" class="triangle-float3"></path><path d="M1041.4981608683506-31.95793707190392L890.244282720405 20.12294979158409 1093.5790477318387 119.29594107604177z" fill="rgba(28, 83, 142, 0.4)" class="triangle-float1"></path><path d="M470.32988418153684 212.91100733519065L350.2135497529962 161.92464835486444 299.2271907726699 282.0409827834051 419.34352520121064 333.02734176373133z" fill="rgba(28, 83, 142, 0.4)" class="triangle-float3"></path><path d="M1291.5306020322291 157.42148437310408L1202.1401067057782 181.3735954068447 1315.4827130659696 246.81197969955514z" fill="rgba(28, 83, 142, 0.4)" class="triangle-float1"></path><path d="M138.71992920417534 632.4356708314893L161.74721089262025 524.1008280605895 30.38508643327549 609.4083891430445z" fill="rgba(28, 83, 142, 0.4)" class="triangle-float3"></path><path d="M259.53878650556067 448.39743504847416L135.18011995592633 340.2940954843666 27.076780391818772 464.6527620340009 151.43544694145308 572.7561015981084z" fill="rgba(28, 83, 142, 0.4)" class="triangle-float3"></path><path d="M68.148,257.067C101.833,259.306,136.761,248.619,155.215,220.351C175.324,189.548,178.644,148.745,159.284,117.466C140.734,87.495,103.351,77.923,68.148,79.678C36.223,81.269,6.475,97.59,-8.5,125.83C-22.639,152.495,-16.161,183.907,-0.939,209.97C14.126,235.765,38.342,255.086,68.148,257.067" fill="rgba(28, 83, 142, 0.4)" class="triangle-float3"></path></g><defs><mask id="SvgjsMask1015"><rect width="1440" height="560" fill="#ffffff"></rect></mask><style>
            @keyframes float1 {
                0%{transform: translate(0, 0)}
                50%{transform: translate(-10px, 0)}
                100%{transform: translate(0, 0)}
            }

            .triangle-float1 {
                animation: float1 5s infinite;
            }

            @keyframes float2 {
                0%{transform: translate(0, 0)}
                50%{transform: translate(-5px, -5px)}
                100%{transform: translate(0, 0)}
            }

            .triangle-float2 {
                animation: float2 4s infinite;
            }

            @keyframes float3 {
                0%{transform: translate(0, 0)}
                50%{transform: translate(0, -10px)}
                100%{transform: translate(0, 0)}
            }

            .triangle-float3 {
                animation: float3 6s infinite;
            }
        </style></defs></svg>